<?xml version="1.0" encoding="UTF-8"?>
<!DOCTYPE svg PUBLIC "-//W3C//DTD SVG 1.1//EN" 
"http://www.w3.org/Graphics/SVG/1.1/DTD/svg11.dtd">
<svg 
    xmlns="http://www.w3.org/2000/svg"
    xmlns:xlink="http://www.w3.org/1999/xlink">
    
<symbol id="arrow-left" viewBox="0 0 32 32">
<path fill-rule="evenodd" clip-rule="evenodd" d="M7.586 14.485a2 2 0 000 2.829l9.9 9.9a2 2 0 102.828-2.83L11.828 15.9l8.486-8.485a2 2 0 10-2.829-2.828l-9.9 9.9z" fill="currentColor"/></symbol>

<symbol id="arrow-right" viewBox="0 0 32 32">
<path fill-rule="evenodd" clip-rule="evenodd" d="M11.586 4.586a2 2 0 000 2.828l8.486 8.485-8.486 8.486a2 2 0 102.828 2.828l9.9-9.9a2 2 0 000-2.828l-9.9-9.9a2 2 0 00-2.828 0z" fill="currentColor"/></symbol>

<symbol id="bell" viewBox="0 0 32 32">
<path fill-rule="evenodd" clip-rule="evenodd" d="M25.37 20.837c-.994-.978-2.227-2.195-2.227-6.946 0-3.49-2.582-6.384-5.967-6.936.165-.235.253-.513.253-.799 0-.776-.64-1.406-1.429-1.406s-1.429.63-1.429 1.406c0 .297.094.572.253.799-3.385.552-5.967 3.447-5.967 6.936 0 4.75-1.234 5.968-2.227 6.946-1.346 1.325-.392 3.6 1.515 3.6h4.998c0 1.554 1.28 2.813 2.857 2.813 1.578 0 2.857-1.26 2.857-2.813h4.998c1.903 0 2.863-2.273 1.515-3.6zM16 25.492c.197 0 .357.158.357.352 0 .194-.16.351-.357.351-.985 0-1.786-.788-1.786-1.758h.715c0 .582.48 1.055 1.071 1.055z" fill="currentColor"/></symbol>

<symbol id="check" viewBox="0 0 32 32">
<path fill-rule="evenodd" clip-rule="evenodd" d="M11.802 25.379l-8.51-8.51a1.31 1.31 0 010-1.85l1.852-1.852a1.31 1.31 0 011.851 0l5.732 5.732L25.005 6.62a1.31 1.31 0 011.851 0l1.851 1.852a1.31 1.31 0 010 1.851L13.653 25.379a1.309 1.309 0 01-1.851 0z" fill="currentColor"/></symbol>

<symbol id="codepen" viewBox="0 0 32 32">
<path d="M15.3 13.2V9.9L10 13.6l2.4 1.6 3-2zm7.4 4v-2.3L20.9 16l1.8 1.2zM16 3a13 13 0 100 26 13 13 0 000-26zm8 15.5v.4l-.1.1-.1.1-7.4 5h-.8l-7.4-5H8V19l-.1-.1v-5.5a.3.3 0 010-.1H8V13h.1l7.4-5h.8l7.4 5 .1.1v.1h.1v5.4zm-7.3.4V22l5.4-3.6-2.4-1.7-3 2zm-7.4-4v2.3l1.8-1.2-1.8-1zm6.7-.5L13.5 16l2.5 1.7 2.5-1.7-2.5-1.6zm6.1-.8l-5.4-3.7v3.3l3 2 2.4-1.6zm-9.8 3.2l-2.4 1.7 5.4 3.6v-3.2l-3-2z" fill="currentColor"/></symbol>

<symbol id="cog-wheel" viewBox="0 0 32 32">
<path fill-rule="evenodd" clip-rule="evenodd" d="M24.75 17.698l2.063 1.19a.582.582 0 01.264.677 11.982 11.982 0 01-2.647 4.577.581.581 0 01-.717.11l-2.06-1.19a9.269 9.269 0 01-2.94 1.699v2.38a.581.581 0 01-.454.567c-1.692.38-3.508.4-5.285 0a.582.582 0 01-.455-.567v-2.38a9.269 9.269 0 01-2.94-1.7l-2.06 1.19a.581.581 0 01-.718-.109 11.982 11.982 0 01-2.647-4.577.582.582 0 01.265-.676l2.062-1.19a9.362 9.362 0 010-3.397l-2.062-1.19a.582.582 0 01-.265-.677 11.981 11.981 0 012.647-4.577.581.581 0 01.717-.11l2.06 1.191a9.27 9.27 0 012.94-1.7V4.86c0-.272.19-.507.455-.567 1.691-.38 3.508-.4 5.284 0 .266.06.455.295.455.567v2.38a9.269 9.269 0 012.94 1.7l2.06-1.19a.581.581 0 01.718.109 11.981 11.981 0 012.647 4.577c.08.26-.029.54-.264.676l-2.063 1.19a9.363 9.363 0 010 3.397zM19.487 16a3.875 3.875 0 00-3.871-3.871A3.875 3.875 0 0011.745 16a3.875 3.875 0 003.87 3.871A3.875 3.875 0 0019.488 16z" fill="currentColor"/></symbol>

<symbol id="cross" viewBox="0 0 32 32">
<path fill-rule="evenodd" clip-rule="evenodd" d="M25.192 8.222a2 2 0 010 2.828L20.242 16l4.95 4.95a2 2 0 010 2.828l-1.414 1.414a2 2 0 01-2.828 0L16 20.242l-4.95 4.95a2 2 0 01-2.828 0l-1.414-1.414a2 2 0 010-2.828l4.95-4.95-4.95-4.95a2 2 0 010-2.828l1.414-1.414a2 2 0 012.828 0l4.95 4.95 4.95-4.95a2 2 0 012.828 0l1.414 1.414z" fill="currentColor"/></symbol>

<symbol id="info" viewBox="0 0 32 32">
<path d="M16 5C9.923 5 5 9.968 5 16c0 6.077 4.923 11 11 11 6.032 0 11-4.923 11-11 0-6.032-4.968-11-11-11zm0 4.879c1.02 0 1.863.843 1.863 1.863A1.846 1.846 0 0116 13.605c-1.065 0-1.863-.799-1.863-1.863 0-1.02.798-1.863 1.863-1.863zm2.484 11.266a.54.54 0 01-.532.532h-3.904a.512.512 0 01-.532-.532v-1.064a.54.54 0 01.532-.533h.533V16.71h-.533a.513.513 0 01-.532-.533v-1.064a.54.54 0 01.532-.532h2.84c.265 0 .531.266.531.532v4.435h.533c.266 0 .532.267.532.533v1.064z" fill="currentColor"/></symbol>

<symbol id="linkedin" viewBox="0 0 32 32">
<path d="M8.7 4A4.7 4.7 0 004 8.7v14.6C4 25.9 6.1 28 8.7 28h14.6c2.6 0 4.7-2.1 4.7-4.7V8.7C28 6.1 25.9 4 23.3 4H8.7zm1.2 4c1.2 0 2 .8 2 1.8s-.8 2-2 2c-1.3 0-2-1-2-2S8.5 8 9.8 8zm10.7 5c2.4 0 4.1 1.5 4.1 4.9V24h-3.6v-5.8c0-1.5-.5-2.5-1.8-2.5-1 0-1.6.7-1.9 1.3v7h-3.7V13.2h3.6v1.6c.5-.8 1.3-1.8 3.3-1.8zM8 13.2h3.7v11H8v-11z" fill="currentColor"/></symbol>

<symbol id="lock" viewBox="0 0 32 32">
<path fill-rule="evenodd" clip-rule="evenodd" d="M23.857 13.546h-1.071v-3.069C22.786 6.907 19.74 4 16 4c-3.741 0-6.786 2.906-6.786 6.477v3.069H8.143C6.96 13.546 6 14.462 6 15.59v8.182c0 1.129.96 2.045 2.143 2.045h15.714c1.183 0 2.143-.916 2.143-2.045V15.59c0-1.13-.96-2.045-2.143-2.045zm-4.22.454h-6.364v-3.182a3.185 3.185 0 013.181-3.182 3.185 3.185 0 013.182 3.182V14z" fill="currentColor"/></symbol>

<symbol id="pen" viewBox="0 0 32 32">
<path fill-rule="evenodd" clip-rule="evenodd" d="M17.765 9.161l5.074 5.074a.549.549 0 010 .777L10.434 27.417l-5.216.576a1.096 1.096 0 01-1.211-1.211l.58-5.22 12.401-12.4a.549.549 0 01.777 0zm9.573-1.68l-2.821-2.822a2.257 2.257 0 00-3.188 0l-2.163 2.165a.564.564 0 000 .798l5.21 5.213c.22.22.577.22.798 0l2.164-2.165a2.251 2.251 0 000-3.189z" fill="currentColor"/></symbol>

<symbol id="twitter" viewBox="0 0 32 32">

<path d="M29 8.4c-.7 1-1.6 2-2.6 2.7v.7a15 15 0 01-9.4 14 14.8 14.8 0 01-13-1.5h1.2a10 10 0 006.4-2.2 5.1 5.1 0 01-4.8-3.6 5 5 0 002.3-.1 5 5 0 01-3-1.8 5 5 0 01-1-3.3 5 5 0 002.2.6A5.1 5.1 0 015 9.6c0-1 .3-1.8.7-2.7a14.6 14.6 0 0010.6 5.5l-.1-1.2a5 5 0 011.5-3.7A5 5 0 0121.3 6a5 5 0 013.8 1.6c1.1-.2 2.2-.6 3.2-1.2a5 5 0 01-2.2 2.9c1-.2 2-.4 2.9-.9z" fill="currentColor"/></symbol></svg>